<?xml version="1.0" encoding="utf-8"?>
<!-- Generator: Adobe Illustrator 21.1.0, SVG Export Plug-In . SVG Version: 6.00 Build 0)  -->
<svg version="1.1" id="Calque_2" xmlns="http://www.w3.org/2000/svg" xmlns:xlink="http://www.w3.org/1999/xlink" x="0px" y="0px"
	 viewBox="0 0 1000 1000" style="enable-background:new 0 0 1000 1000;" xml:space="preserve">
<style type="text/css">
	.st0{fill:none;stroke:#000000;stroke-width:10;stroke-miterlimit:10;}
	.st1{fill:none;}
	.st2{font-family:'RobotoCondensed-Regular';}
	.st3{font-size:60px;}
	.st4{fill:none;stroke:#000000;stroke-width:0.25;stroke-miterlimit:10;}
	.st5{fill:none;stroke:#000000;stroke-width:4;stroke-miterlimit:10;}
</style>
<path class="st0" d="M474.2,286.1c4.9-47.4,7-95.1,6.3-142.8"/>
<rect x="268" y="29.5" class="st1" width="444" height="54"/>
<text transform="matrix(1 0 0 1 374.5352 100.5)" class="st2 st3">Portance</text>
<text transform="matrix(1 0 0 1 374.5352 100.5)" class="st4 st2 st3">Portance</text>
<path class="st0" d="M453.9,170.2c10.4-12.1,20.9-24.2,31.3-36.3c5.5,10.8,12.8,20.6,21.5,28.9"/>
<path class="st0" d="M480.5,613.7c-1.8,47.6-0.9,95.4,2.8,142.9"/>
<path class="st0" d="M508.2,757.1c-9.6,12.7-19.3,25.5-28.9,38.2c-6.2-10.4-14.1-19.7-23.3-27.5"/>
<path class="st0" d="M759.1,460.5c47.5,3.9,95.3,5,142.9,3.4"/>
<path class="st0" d="M884.6,432.3c12.3,10.2,24.6,20.4,36.9,30.6c-10.6,5.7-20.3,13.2-28.5,22.1"/>
<path class="st0" d="M209.4,453.3c-47.4-5-95.1-7.3-142.8-6.8"/>
<path class="st0" d="M93.4,473.3c-12.1-10.5-24.1-20.9-36.2-31.4c10.8-5.4,20.6-12.7,29-21.4"/>
<rect x="263" y="816.5" class="st1" width="475" height="104"/>
<text transform="matrix(1 0 0 1 433.3955 861.5)" class="st2 st3">Poids</text>
<rect x="38" y="353.5" class="st1" width="220" height="70"/>
<text transform="matrix(1 0 0 1 769 404.1)" class="st2 st3">Poussée</text>
<rect x="763" y="344.5" class="st1" width="214" height="74"/>
<text transform="matrix(1 0 0 1 38.0001 397.991)" class="st2 st3">Traînée</text>
<path class="st5" d="M366.3,415.4c-10.4-4.2-20.5-8.7-30.9-12.9c-21.6-8.7-43.2-17.4-64.7-26.1c-4.9-2-10.1-4-15.4-3.6
	c9.8,0.5,18.4,1.1,28.1,2.2c20.9,2.5,41.4,7.9,61.7,13.4c51.2,13.6,102.3,27.3,153.5,40.9c8,2.1,16.3-1.8,24.1-4.9
	c2.3-0.9,4.6-2,7-2.7c4.3-1.2,8.9-1.2,13.3-0.7c1.4,0.2,2.8,0.4,4.1,1c4,2.1,4.7,7.8,8,11c32.3-8.9,65.2-17.2,97.7-25.2
	c6.3-1.5,12.6-3.1,18.9-4.3c13.7-2.6,27.8-3.5,41.8-2.8c2.9,0.1,5.8,0.4,8.5,1.3c2.6,0.9,4.9,2.4,7.1,4c6.1,4.2,11.8,8.9,17.2,14
	c-4,7.8-11.7,14.2-19.6,18.1c-18.5,9.2-38.6,14.6-58.6,19.8c-16.6,4.3-33.2,8.4-49.8,12.8c-2.1,0.5-4.2,1.1-5.9,2.3
	c-1.6,1.1-2.8,2.6-4.3,3.9c-3,2.6-7.1,4-11.1,3.9c0.4,3.2-0.1,7.2-1.6,10.1c-0.4,0.8-1,1.6-1.5,2.3c14.3,0.1,27.6-10.4,41.7-8.2
	c1.2,0.2,2.4,0.5,3.4,1.2c2,1.4,2.7,4,3.5,6.3c1,2.9,2.4,5.6,2.8,8.7c0.7,5.7-2.6,11.3-7.2,14.7c-4.6,3.4-10.3,5-15.9,6.1
	c-7.1,1.4-14.4,2.3-21.7,2.5c-2.5,0.1-5.8-0.4-6.4-2.8c-0.2-0.8-0.1-1.7-0.7-2.3c-0.7-0.7-1.8-0.5-2.7-0.6s-1.9-1.3-1.2-1.9
	c-0.9-0.5-2.1,0.1-2.8,1c-0.6,0.9-0.8,2-1,3c-1.1,5.8-3.5,11.3-5.9,16.8c-1.5,3.3-3,6.7-5.5,9.3c-3.5,3.5-8.5,5.1-13.3,6.4"/>
<path class="st5" d="M403.4,432.1c-0.2-0.3-0.5-0.4-0.8-0.5c-8.4-3.5-16.8-6.9-25.3-10.4c-3.4-1.4-8.9-4.2-11.9-6.2"/>
<path class="st5" d="M264,483.4c2.4-0.4,4.8-0.9,7.2-1.3c2.1-0.4,4.3-0.8,6.1-2.1c11.6-0.3,22.9,4,34,6.9s22.4,4.8,33.8,5.8
	c-5-18.8-11.9-37.5-18.3-55.9c5.5,0.4,10.3-0.6,15.6-2.1c10.4,8.1,21.1,16.2,30,25.8c2.9,3.2,5.7,6.5,9.1,9.1
	c3.3,2.6,7.2,4.4,11.1,5.9c2.2,0.8,4.6,1.6,7,1.4c1.6-0.1,3.2-0.6,4.8-1.2c15.5-5.3,31-10.7,46.4-16c-2.4,0.2-4.5-0.9-6.7-2
	c0.8-0.4,1.6-0.9,2.3-1.4c0.3-0.2,0.6-0.5,0.7-0.9c0-0.3-0.2-0.6-0.3-0.9c-4.1-5.7-10.3-9.4-16.8-12.1c-6.4-2.7-13.2-4.6-19.6-7.5
	c-4.4-0.9-4.2-4-7.8-3"/>
<path class="st5" d="M264.3,483.6c11.3,5.3,23,9.5,34.7,13.7c10.6,3.8,21.4,8.5,32,12.4c-3.4,2.5-7.2,4.4-11.3,5.5
	c0.5,1.1,1,2.7,1.1,3.9c2,0,4,0,6,0c2.2,0,4.4,0,6.6,0.3c5.6,0.6,12.1,3.3,17.7,2.6c6.5,2.6,12.2,7.8,15.1,14.2
	c3.6-1.5,7-3.3,10.9-3.7c0.8-3,1.2-7.3,1-10.4c16.5-0.7,32.9-1.4,49.3-2.7c4.2-0.3,8.4-0.7,12.4-1.7c3.8-0.9,7.6-2.2,11.3-3.3
	c10-2.9,20.4-4.1,30.7-5.2c4.5-0.5,9.1-1,13.6-1.5c6.5-0.7,14.7-1.3,20.3-4.7c7.7,1.7,15.3,3.9,22.8,6.6c1.9,0.7,3.8,1.4,5.3,2.7
	c1,0.8,1.7,1.9,2.5,2.9c2.9,4,5.8,8.1,8.7,12.1c4.3,5.9,8.7,12.3,9.1,19.6c0.1,2.3-0.4,5-2.5,6.1"/>
<path class="st5" d="M332.2,438c2.1,4,5.6,7.2,7.7,11.3c0.9,1.6,1.5,3.4,2.2,5.1c1.1,2.8,2.6,5.5,4,8.2c3.9,7.5,7.9,15,11.8,22.6
	c1.6,3,3.1,6,4.6,9"/>
<path class="st5" d="M271.2,483.5c23.7,7.7,47.3,15.4,71,23.1"/>
<path class="st5" d="M361.8,521.5c1.2,0.5,1.9,1.7,2.5,2.9c1.7,3,3.4,6.1,5.1,9.2"/>
<path class="st5" d="M276.4,480.3c28.2,7.8,56.8,13.9,85.8,18.3"/>
<path class="st5" d="M556.4,513.2c0.5,1.3,1,2.7,1.5,4"/>
<path class="st5" d="M560.6,522.7c0.7,1.9,1.5,3.9,2.3,5.8"/>
<path class="st5" d="M565.3,532.7c0.2,3.2,0.5,6.5,1,9.7"/>
<path class="st5" d="M489.6,481.2c-9.5-7.6-18.8-15.4-27.9-23.4"/>
<path class="st5" d="M456,452.4c-2.3-1.5-4.5-3.3-6.6-5.1"/>
<path class="st5" d="M316.8,391.9c3.3-0.2,6.3,1.3,9.3,2.7c7.8,3.7,15.8,6.9,24,9.5"/>
<path class="st5" d="M354.8,406c6.4,0.7,11.5,6,17.9,7.1"/>
<path class="st5" d="M380.2,416.2c3.4,0.6,6.4,2.7,9.6,4.2c8.1,3.9,17.7,4.4,25.3,9.3"/>
<path class="st5" d="M420.6,432.7c1.1,0.4,2.3,0.8,3.5,1.1c3.4,1.1,6.8,2.4,10.1,3.9"/>
<path class="st5" d="M400.8,483.2c-0.5,0.9-0.3,2.2,0.4,2.9c0.3-1.1,0.5-2.2,0.6-3.3c-0.2,0.1-0.4,0.1-0.6,0.2"/>
<path class="st5" d="M405.2,481.7c-0.2,0.7-0.2,1.5-0.1,2.3c0.3,0.3,0.7-0.2,0.9-0.6c0.2-0.7,0.4-1.3,0.4-2c-0.5-0.1-1-0.1-1.5,0.1"
	/>
<path class="st5" d="M409.2,480.8c-0.2,0.8-0.2,1.6-0.1,2.5c0.4,0.2,0.9,0,1.1-0.3s0.3-0.8,0.3-1.2c0-0.4,0.1-0.8-0.1-1.2
	s-0.6-0.7-1-0.5c-0.1,0.2-0.2,0.4-0.3,0.6"/>
<path class="st5" d="M413.2,479.2c-0.1,0.8-0.1,1.6-0.2,2.3c0.5,0.2,1.1-0.2,1.4-0.7s0.3-1.1,0.3-1.6c0-0.1,0-0.3-0.1-0.4
	s-0.2-0.1-0.3-0.1c-0.4,0-0.8-0.1-1.2-0.1"/>
<path class="st5" d="M422.3,476.2c0.2,0.4,0,0.8,0,1.3c0,0.4,0.2,1,0.6,1s0.6-0.4,0.7-0.7c0.2-0.5,0.4-1,0.6-1.5
	c-0.7-0.1-1.5,0-2.1,0.5"/>
<path class="st5" d="M427,475c0,0.6,0,1.2,0,1.9c0,0.2,0,0.4,0.1,0.6c0.3,0.5,1.1,0,1.3-0.5c0.1-0.6,0-1.2,0.1-1.7
	c-0.6-0.2-1.4,0-1.8,0.5"/>
<path class="st5" d="M431.3,474.7c-0.1-0.1-0.1-0.2-0.2-0.3c-0.1,0.8-0.1,1.6-0.2,2.5c0.7,0.1,1.3-0.4,1.6-0.9
	c0.3-0.6,0.4-1.3,0.2-1.9c0-0.1-0.1-0.2-0.1-0.3c-0.1-0.1-0.2,0-0.3,0C431.9,473.7,431.7,474.4,431.3,474.7z"/>
<path class="st5" d="M435.6,472.9c-0.2,0.4-0.3,0.9-0.3,1.3c0,0.5,0.3,0.9,0.7,1.1c0.5,0.2,1.1-0.3,1.3-0.8s0.2-1.1,0.1-1.7
	c0-0.2-0.1-0.4-0.2-0.5s-0.2-0.1-0.3-0.1c-0.7,0-1.4,0.4-1.8,1"/>
<path class="st5" d="M439.8,472.2c-0.3,0.8-0.4,1.7-0.3,2.6c0.6,0.4,1.4-0.3,1.7-1c0.2-0.6,0.3-1.4-0.2-1.9s-1.5-0.2-1.5,0.4"/>
<path class="st5" d="M444.7,470.2c0,0.7,0,1.5,0,2.2c0.4,0.3,0.9-0.4,0.9-0.9c0-0.4,0-0.9-0.3-1.2s-0.9-0.3-1.1,0.1"/>
<path class="st5" d="M448.7,469.7c-0.5,0.4-1,1-1.1,1.6c0,0.7,0.8,1.3,1.3,0.9c0.1-0.1,0.2-0.3,0.3-0.5c0.3-0.9,0.4-1.9,0.3-2.9
	c-0.5-0.4-1.4-0.2-1.7,0.3"/>
<path class="st5" d="M452.5,468.7c-0.1,0.5-0.2,0.9,0,1.4c0.1,0.4,0.5,0.9,0.9,0.9s0.7-0.2,1-0.5c0.7-0.8,0.5-2.2-0.3-2.8
	c-0.6,0.3-1.1,0.7-1.7,1"/>
<path class="st5" d="M457.5,467.2c-0.3,0.5-0.4,1.2,0.1,1.5c0.5,0.2,0.9-0.3,1.2-0.7c0.2-0.3,0.4-0.6,0.3-1s-0.5-0.7-0.9-0.7
	s-0.8,0.1-1.2,0.2"/>
<path class="st5" d="M427.8,503.7c-0.4-1-0.8-2-1.1-2.9c-1.5-3.8-3-7.8-2.7-11.9c3.6-0.2,7.5-1.6,10.8-3c2.3-1,4.7-2.3,7.3-2
	c0.5,5.3,4.5,9.8,5,15.2C440.7,499.4,434.1,503,427.8,503.7z"/>
<path class="st5" d="M386.8,489.3c0-2.6,0.2-5.2,1.3-7.6c2.2,0.3,4.5,0.4,6.7,0.3c-0.4,4.6-0.6,9.1-0.6,13.7c0-0.3-6.5,1.4-7,1
	C386.2,496,386.8,490.6,386.8,489.3z"/>
<path class="st5" d="M453.8,459.3c2.3,2.6,5.5,4.2,8.3,6.2c1.8,1.4,3.5,2.9,5.1,4.5c4.4,4.2,8.7,8.3,13.1,12.5"/>
<path class="st5" d="M554.8,447.8c2.2,0.7,4.3,1.7,6.4,2.5c3.6,1.3,7.5,2.1,11.3,2.9"/>
<path class="st5" d="M555.1,433.3c-0.1,4.5-0.8,9-2.1,13.2c-0.7,2.3-1.7,4.6-3.6,6.2c-1,0.8-2.1,1.3-3.2,1.8c-2.9,1.3-5.9,2.7-9,3.3
	c-2.3,0.4-4.7,0.5-6.9,1c-1.9,0.4-3.7,1.1-5.5,1.6c-2.3,0.5-4.6,0.7-6.9,0.8c-2.9,0.1-5.8,0.2-8.7,0.3c-1.9,0-3.8,0.1-5.6-0.4
	c-3.9-1-6.8-4.3-8.3-8.1c-1.5-3.7-1.6-7.8-1.4-11.8c0.1-1.6,0.3-3.3,1.1-4.6c1.6-2.4,5.2-3.4,5.9-6.2"/>
<path class="st5" d="M733.8,409.6c-3,5.7-4.7,12.5-3,18.7c0.6,2.1,1.6,4.1,3.5,5.2"/>
<path class="st5" d="M535.5,421.3c-3,2.8-3.8,7.3-3.8,11.5c0,4.7,0.8,9.4,3,13.6c2.1,4.2,5.6,7.8,9.9,9.5"/>
<path class="st5" d="M552,449.5c-2.5,0.7-5.4,0.1-7.3-1.7c-1.4-1.3-2.2-3-3-4.7c-1.9-4.7-2.9-10.1-0.8-14.7c0.6-1.4,1.6-2.7,1.8-4.2
	c-0.2,0,0.4-0.6,0.5-0.8c0.4-0.2,0.8-0.3,1.2-0.5c0.7-0.2,1.4-0.4,2.1-0.4c0.7,0.1,1.4,0.5,1.6,1.1"/>
<path class="st5" d="M594,493.8c-1.1,2.4-2.9,4.4-3.9,6.8c-1.2,2.9-1.1,6.2-0.2,9.3c0.8,3,2.3,5.9,3.7,8.7"/>
<path class="st5" d="M493.1,444.9c-0.7-0.3-1.7,0-2.1,0.6c-0.3,0.4-0.3,0.9-0.5,1.3c-0.4,1-1.5,1.5-2.4,2c-3,1.6-5.7,3.9-7.8,6.6
	c2.6,0.3,5.2,0.6,7.8,0.9c1.5,0.2,3.1,0.4,4.6,0.1c0.3-0.1,0.7-0.1,0.9,0c0.2,0.1,0.3,0.3,0.4,0.5c0.9,1.4,2.9,2.1,4.5,1.6"/>
<path class="st5" d="M588.5,504.2c-1.1,0.1-2.5,0.4-2.9,1.5c-0.3,1,0.3,2,0,3c-1.5,0.5-3,1-4.5,1.5c-0.6,0.2-1.3,0.4-1.9,0.8
	c-1.4,0.9-2.1,2.6-3.4,3.7c3.8,0.2,7.7,0.8,11.4,1.7"/>
<path class="st5" d="M627.5,485.7c-0.3,2.3-0.6,4.7-0.9,7c-0.3,2.6-0.6,5.3-0.5,8c0.2,4.6,1.8,9.2,4.5,12.9c1.3,1.8,2.9,3.4,5,3.9"
	/>
<path class="st5" d="M640,488.1c-1.4-1.1-3.2-1.7-5-1.7c-1,4.2-1.5,8.6-1.3,12.9c0.1,2.8,0.4,5.6,1.8,8c1.3,2.4,3.8,4.4,6.5,4.4"/>
<path class="st5" d="M730.4,407.2c-7.4-1.5-15.3,0.8-22.4-1.5c-0.3-0.1-0.8-0.3-0.8-0.7c0-0.2,0.1-0.4,0.2-0.6
	c0.5-0.7,1-1.4,1.4-2.1c0-0.6-0.5-0.8-0.5-1.3"/>
<path class="st1" d="M558,439.6c0,0.4-0.1,0.7-0.1,1.1c0,0.2,0,0.4,0.1,0.6c0.2,0.5,0.9,0.7,1.5,0.5c0.5-0.2,0.9-0.8,1-1.4
	s0-1.2,0-1.7c0-0.1,0-0.2-0.1-0.2c0-0.1-0.1-0.1-0.2-0.1c-0.6-0.2-1.3,0-1.7,0.5c-0.2,0.3-0.3,0.6-0.4,0.9"/>
<path class="st1" d="M562.9,438.1c0,0.4-0.1,0.9,0,1.3s0.4,0.8,0.8,1c0.5,0.2,1.2-0.1,1.4-0.6c0.1-0.3,0.1-0.6,0.1-0.9
	c-0.1-0.5-0.1-1-0.2-1.5c0-0.1,0-0.2-0.1-0.3c-0.2-0.3-0.7-0.2-0.9,0c-0.3,0.2-0.6,0.5-0.8,0.8"/>
<path class="st5" d="M568.2,436.3c-0.3,0.6-0.4,1.3-0.4,2c0,0.2,0,0.5,0.2,0.6c0.1,0.1,0.2,0.2,0.4,0.3c0.3,0.1,0.7,0.3,1,0.2
	c0.5-0.1,0.7-0.6,0.9-1.1c0.2-0.8,0.2-1.6,0-2.4c-0.9,0.1-1.8,0.3-2.7,0.7"/>
<path class="st5" d="M563.2,437.9c-0.2,0.6-0.2,1.3,0,1.9c0.1,0.3,0.4,0.6,0.7,0.6s0.5-0.4,0.7-0.7c0.4-0.8,0.7-1.6,0.4-2.4
	C564.4,437,563.5,437.3,563.2,437.9"/>
<path class="st5" d="M558.1,439.2c0,0.4,0,0.8,0,1.2c0,0.4,0.2,0.8,0.5,1c0.5,0.3,1.1,0,1.4-0.4s0.3-1,0.3-1.6c0-0.3,0-0.5-0.2-0.7
	s-0.4-0.2-0.7-0.1c-0.2,0.1-0.4,0.2-0.6,0.3c-0.3,0.2-0.5,0.4-0.8,0.5"/>
<path class="st5" d="M572.6,435.4c0,0.7,0,1.5,0,2.2c0.5,0.1,1.2,0.2,1.5-0.2c0.2-0.2,0.2-0.5,0.2-0.7c0-0.7,0-1.4-0.2-2.1
	c-0.5,0.1-1,0.4-1.3,0.9"/>
<path class="st5" d="M577.8,433.9c0,0.3-0.1,0.6-0.1,0.9c0,0.5,0,1,0.3,1.3c0.3,0.2,0.8,0.1,1.1-0.1c0.3-0.3,0.4-0.6,0.5-1
	c0.1-0.3,0.2-0.7,0.2-1.1c0-0.2,0-0.4-0.1-0.5c-0.2-0.2-0.5-0.2-0.7-0.1s-0.4,0.4-0.6,0.6s-0.4,0.4-0.7,0.4"/>
<path class="st5" d="M582.3,432.7c0,0.5,0.1,1.1,0.1,1.6c0,0.1,0,0.2,0.1,0.4c0.2,0.4,0.7,0.5,1.1,0.3s0.5-0.7,0.7-1.1
	c0.1-0.5,0.2-1,0.2-1.5c0-0.2,0-0.4-0.1-0.6s-0.3-0.3-0.5-0.3c-0.3,0-0.5,0.3-0.6,0.6c-0.3,0.5-0.7,0.9-1.2,1.2"/>
<path class="st5" d="M587.6,431.8c-0.1,0.5-0.2,1-0.1,1.5c0.2,0.5,0.8,0.8,1.2,0.6c0.3-0.2,0.4-0.5,0.5-0.7c0.2-0.7,0.4-1.4,0.4-2.1
	c0-0.2,0-0.4-0.1-0.6c-0.2-0.3-0.6-0.5-1-0.3c-0.4,0.1-0.6,0.4-0.9,0.7s-0.4,0.7-0.7,0.9"/>
<path class="st5" d="M596.8,426.6c0.1-0.8,0.2-1.8,1-2.2c0.3-0.2,0.7-0.2,1.1-0.2c1,0,2-0.1,3.1-0.1c1,0,2.1-0.1,2.8-0.8
	c0.5,3.8-1.4,7.6-1.2,11.5c0.1,1,0.2,2.3-0.7,2.9c-0.3,0.2-0.8,0.2-1.2,0.2c-0.8,0-1.5,0.1-2.3,0.2c-0.6,0.1-1.5,0.5-2.1,0.4
	c-1.2-0.2-0.9-1.7-0.9-2.6C596.4,432.8,596.6,429.7,596.8,426.6z"/>
<path class="st5" d="M616.6,422.7c-0.2,0.6-0.4,1.2-0.3,1.8c0.1,0.6,0.6,1.2,1.2,1.2c0.6,0,1.1-0.6,1.3-1.2c0.3-0.6,0.4-1.3,0.3-2
	c0-0.1,0-0.2-0.1-0.3c-0.1-0.1-0.2-0.1-0.3-0.1c-0.2,0-0.4-0.1-0.6-0.1c-0.3-0.1-0.6-0.1-0.9,0c-0.5,0.2-0.6,0.8-1,1.1"/>
<path class="st5" d="M621.7,421.8c-0.2,0.6-0.3,1.2-0.3,1.8c0,0.1,0,0.2,0,0.3c0,0.1,0.1,0.2,0.2,0.2c0.5,0.3,1.2,0.1,1.7-0.3
	c0.6-0.6,0.5-1.5,0.5-2.3c0-0.2,0-0.3-0.1-0.5c-0.2-0.3-0.6-0.4-0.9-0.2c-0.3,0.1-0.5,0.4-0.8,0.6c-0.2,0.3-0.4,0.5-0.7,0.7"/>
<path class="st5" d="M626.6,420.8c0,0.5,0,1,0.1,1.4c0,0.2,0.1,0.4,0.2,0.6c0.3,0.4,0.9,0.4,1.3,0.3c0.1,0,0.3,0,0.4-0.1
	c0.1-0.1,0.1-0.2,0.2-0.3c0.3-0.9,0.3-1.9,0.2-2.9c0-0.1,0-0.2-0.1-0.2c-0.1-0.1-0.2-0.1-0.3-0.1c-0.8,0.1-1.5,0.6-1.8,1.4"/>
<path class="st5" d="M631.9,419c0,0.6,0,1.3,0,1.9c0.5,0,0.9,0,1.4,0c0.1,0,0.2,0,0.3-0.1s0.2-0.2,0.2-0.3c0.3-0.8,0.3-1.6-0.1-2.4
	c-0.1-0.2-0.3-0.5-0.6-0.4c-0.2,0-0.3,0.2-0.4,0.3c-0.3,0.4-0.6,0.8-0.9,1.3"/>
<path class="st5" d="M636.8,417.9c-0.1,0.4-0.3,0.9-0.2,1.3s0.4,0.9,0.9,0.9c0.2,0,0.4-0.1,0.6-0.2c0.7-0.4,1.1-1.2,1.1-2
	c0-0.2-0.1-0.5-0.2-0.7c-0.3-0.4-0.9-0.4-1.4-0.3c-0.1,0-0.2,0-0.3,0.1s-0.2,0.2-0.2,0.3c-0.2,0.4-0.3,0.7-0.5,1.1"/>
<path class="st5" d="M641.8,416.3c-0.1,0.4-0.1,0.8-0.2,1.1c0,0.2-0.1,0.4,0,0.5c0.1,0.2,0.3,0.3,0.6,0.3c0.5,0.1,1.1,0.2,1.6-0.1
	c0.7-0.4,0.8-1.3,0.8-2c0-0.3,0-0.6,0-0.8c-0.1-0.3-0.3-0.5-0.5-0.6c-0.4-0.1-0.9,0.2-1.2,0.6S642.4,416.1,641.8,416.3"/>
<path class="st5" d="M647.2,415.3c0.1,0.3,0,0.6,0,1s0.1,0.7,0.4,0.9c0.2,0.1,0.3,0.1,0.5,0.1s0.4,0,0.6,0c0.1,0,0.2,0,0.3,0
	c0.2-0.1,0.2-0.2,0.3-0.4c0.1-0.4,0.3-0.8,0.4-1.2c0.1-0.4,0.3-1-0.1-1.3c-0.3-0.2-0.6-0.2-1-0.1c-0.5,0.1-1,0.3-1.4,0.6"/>
<path class="st5" d="M652.2,413.7c0.4,0.5,0,1.4,0.4,1.8c0.2,0.1,0.4,0.2,0.6,0.2c0.4,0.1,0.8,0,1.1-0.1c0.5-0.3,0.8-0.9,0.7-1.5
	s-0.6-1.1-1.1-1.3c-0.1-0.1-0.2-0.1-0.4-0.1s-0.4,0.2-0.5,0.4c-0.2,0.4-0.4,0.7-0.6,1.1"/>
<path class="st5" d="M657.4,412.5c0,0.3-0.1,0.7,0,1s0.3,0.7,0.6,0.8c0.6,0.3,1.3-0.2,1.5-0.8c0.2-0.6,0.1-1.3-0.1-1.9
	c-0.4,0-0.8-0.1-1.2,0s-0.8,0.4-0.9,0.7"/>
<path class="st5" d="M670.5,418c0.1,0.4,0.2,0.9,0.6,1c0.2,0.1,0.5,0,0.8-0.1c2.8-0.8,5.7-1.4,8.6-1.8c-0.1-4.5-0.3-9.1,0.5-13.6
	c0,0.3-7.5,0.8-8.5,1.7c-0.7,0.6-0.9,1.6-1.2,2.4c-0.5,1.6-0.9,3.2-1.1,4.8C670,414.2,670.1,416.1,670.5,418z"/>
<path class="st5" d="M673.1,407.8c-0.1,0.5-0.2,1-0.3,1.5s-0.2,1,0.2,1.3c0.3,0.2,0.8,0,1-0.3s0.3-0.7,0.3-1.1c0-0.3,0.1-0.7,0.1-1
	c0-0.1,0-0.3-0.1-0.4s-0.2-0.1-0.3-0.1c-0.6,0-1.1,0.3-1.4,0.8"/>
</svg>
